PathFileType  4	(X/Y/Z) C:\Users\antoi\Documents\MyRepositories\mobilecap\ResultsAnalysis
DataRate	CameraRate	NumFrames	NumMarkers	Units	OrigDataRate	OrigDataStartFrame	OrigNumFrames
100.0	100.0	7	51	mm	100.0	97	129
Frame#	Time	r_knee			r_shank_antsup			r_ankle			r_calc			r_5meta			r_toe			L_knee			L_shank_antsup			L_ankle			L_calc			L_5meta			L_toe			r_sh2			r_sh3			r_sh4			L_sh2			L_sh3			r_thigh1			r_thigh2			r_thigh3			r_thigh4			r_thigh5			L_thigh1			L_thigh2			L_thigh3			L_thigh4			r.ASIS			r.PSIS			L.ASIS			L.PSIS			C7			R_Shoulder			L_Shoulder			R_Sternum			L_Sternum			R_humerus			R_elbow_med			R_elbow_lat			R_forearm			R_wrist_radius			R_wrist_ulna			L_humerus			L_elbow_med			L_elbow_lat			L_forearm			L_wrist_radius			L_wrist_ulna			R_HJC			L_HJC			R_HJC_reg			L_HJC_reg			
		X1	Y1	Z1	X2	Y2	Z2	X3	Y3	Z3	X4	Y4	Z4	X5	Y5	Z5	X6	Y6	Z6	X7	Y7	Z7	X8	Y8	Z8	X9	Y9	Z9	X10	Y10	Z10	X11	Y11	Z11	X12	Y12	Z12	X13	Y13	Z13	X14	Y14	Z14	X15	Y15	Z15	X16	Y16	Z16	X17	Y17	Z17	X18	Y18	Z18	X19	Y19	Z19	X20	Y20	Z20	X21	Y21	Z21	X22	Y22	Z22	X23	Y23	Z23	X24	Y24	Z24	X25	Y25	Z25	X26	Y26	Z26	X27	Y27	Z27	X28	Y28	Z28	X29	Y29	Z29	X30	Y30	Z30	X31	Y31	Z31	X32	Y32	Z32	X33	Y33	Z33	X34	Y34	Z34	X35	Y35	Z35	X36	Y36	Z36	X37	Y37	Z37	X38	Y38	Z38	X39	Y39	Z39	X40	Y40	Z40	X41	Y41	Z41	X42	Y42	Z42	X43	Y43	Z43	X44	Y44	Z44	X45	Y45	Z45	X46	Y46	Z46	X47	Y47	Z47	X48	Y48	Z48	X49	Y49	Z49	X50	Y50	Z50	X51	Y51	Z51	

97	0.96000000	1220.91915	486.30341	-110.82823	1273.07136	437.11490	-115.23519	1282.51385	98.11680	-126.56737	1233.01848	60.77115	-170.42623	1400.24098	72.05508	-112.36521	1432.15364	110.46466	-163.75254	977.06350	468.59583	-359.64254	1000.21197	381.08372	-340.70245	893.25481	90.43905	-320.68659	831.46843	58.85560	-281.85483	996.29185	41.45938	-341.47881	1043.35278	55.81474	-282.86093	1280.07486	325.18446	-106.51190	1202.13166	433.75052	-84.60551	1199.71237	316.82007	-82.96135	924.24428	405.57364	-384.88178	897.78802	286.30444	-384.40980	1162.30974	731.60670	-72.44230	1210.76249	629.14427	-84.68668	1161.03299	581.11267	-82.84174	1059.59337	682.40796	-81.47573	1110.91875	582.84018	-105.32104	1075.69702	729.17504	-432.17495	1056.37480	597.07876	-391.61526	964.80545	738.15162	-438.61408	941.76519	618.01282	-379.05851	1144.07082	920.87104	-149.88522	929.53271	940.90772	-214.08904	1136.72153	918.16541	-371.70239	929.79119	944.01738	-294.47555	1034.03162	1389.77350	-262.58343	1071.33109	1357.87504	-116.62604	1086.18540	1358.56119	-395.63915	1153.79135	1320.79600	-229.64241	1154.77677	1319.71909	-270.44663	1070.02560	1246.87283	-49.20264	951.30488	1060.19656	-59.18306	985.41137	1063.23140	-2.96911	1040.20049	986.76904	14.77372	1066.97825	843.78325	17.34323	1038.43013	844.02043	43.33702	1102.21120	1262.00166	-469.20140	1068.87757	1035.27354	-478.31623	1101.51105	1064.67458	-530.60405	1190.74598	1002.92327	-527.18465	1272.12550	905.31915	-504.43525	1252.18510	889.48442	-536.17478	1064.67299	830.34839	-152.02233	1056.37235	831.58862	-359.36007	1073.23434	844.18509	-183.32072	1073.70325	849.84928	-329.69753	
98	0.97000000	1229.94943	482.66966	-112.39883	1283.23646	436.67154	-117.22722	1312.25633	98.76126	-126.46046	1265.48887	58.17177	-170.17757	1431.59545	79.09982	-112.67269	1461.18895	119.09681	-164.29199	982.27900	468.38430	-359.14725	1004.56338	380.53689	-340.46418	893.54914	91.30553	-320.06324	831.77488	59.65989	-281.47329	996.39565	41.46768	-341.47715	1043.37300	55.31666	-282.81163	1296.67111	325.37428	-107.74928	1212.82662	429.68513	-86.05683	1216.77280	312.78682	-84.07479	928.85918	406.03301	-384.48421	900.86781	287.08327	-384.14537	1173.94540	728.44058	-73.04438	1221.00743	625.42808	-86.08803	1170.83474	577.88197	-83.11136	1070.56810	680.31569	-80.25248	1120.29597	580.17381	-104.79117	1084.69797	727.58278	-432.05445	1063.56773	595.74988	-391.45059	973.57362	738.27475	-437.90325	949.33385	618.41545	-378.41842	1156.26653	918.66477	-149.62208	941.54466	938.96697	-213.34369	1148.22308	915.99168	-371.56110	941.54815	942.37754	-293.64651	1045.04833	1387.93000	-262.07388	1082.23994	1355.91846	-116.05647	1097.34636	1356.96681	-395.05604	1165.08148	1319.12803	-229.08352	1166.05230	1318.07155	-269.91706	1080.23074	1244.95159	-48.40188	960.90692	1058.77513	-59.50705	994.27630	1061.85528	-2.83890	1048.32533	985.04951	15.85711	1073.70552	841.75189	19.42421	1045.05769	842.42553	45.09708	1113.96591	1260.70932	-468.76972	1081.84571	1033.80180	-478.89279	1114.81248	1063.61012	-530.87709	1204.71240	1002.91795	-526.39090	1287.00099	906.35763	-502.97145	1267.65554	890.39980	-534.73380	1076.65077	828.25189	-151.66086	1067.75852	829.60735	-358.97298	1085.31271	841.66261	-183.14705	1085.31767	847.88516	-329.59606	
99	0.98000000	1238.82646	479.16631	-113.84255	1292.84859	436.11696	-118.87011	1339.74625	100.01294	-126.60790	1295.85819	56.63371	-170.63517	1460.08398	86.15840	-112.63717	1487.73866	127.50095	-164.27934	988.05187	468.13538	-358.69045	1009.32796	379.89402	-340.13314	893.93222	92.31079	-319.51900	832.10117	60.62348	-281.09371	996.51404	41.48256	-341.46176	1043.32194	54.76053	-282.69682	1312.05396	325.65709	-108.79501	1222.99219	425.82101	-87.43815	1232.69131	309.23272	-85.31178	934.01895	406.50251	-384.04307	904.38562	287.91487	-383.87417	1185.51663	725.23146	-73.60487	1231.26436	621.74633	-87.46677	1180.67267	574.69602	-83.51871	1081.62116	678.25088	-79.21439	1129.81421	577.57072	-104.53678	1093.98506	725.93171	-431.89820	1071.11087	594.37460	-391.26269	982.62006	738.30895	-437.13080	957.30862	618.72287	-377.57265	1168.53315	916.34428	-149.34065	953.64892	936.90352	-212.54707	1159.87949	913.75816	-371.41363	953.42747	940.66843	-292.77517	1056.12061	1386.00531	-261.42793	1093.23607	1353.88291	-115.36663	1108.50042	1355.30704	-394.37565	1176.44380	1317.41381	-228.42788	1177.39382	1316.37193	-269.29445	1090.60892	1242.92337	-47.47857	970.83805	1057.08896	-59.84213	1003.47607	1060.30810	-2.69574	1056.77099	983.19538	16.91586	1080.79357	839.56380	21.40075	1052.08524	840.70019	46.75750	1125.68210	1259.33530	-468.24261	1094.76877	1032.26306	-479.29812	1128.04592	1062.47096	-531.00159	1218.54096	1002.73591	-525.59134	1301.62516	907.13592	-501.52713	1282.80825	891.05537	-533.37933	1088.73406	826.03071	-151.30066	1079.26531	827.56915	-358.58563	1097.48814	838.98516	-183.03443	1097.08284	845.86388	-329.55578	
100	0.99000000	1247.73132	475.94427	-115.14988	1302.11256	435.41020	-120.11525	1364.53339	101.42807	-127.05033	1323.50163	55.86207	-171.84882	1485.34332	92.63381	-112.26072	1511.56546	135.09914	-163.71101	994.42534	467.84495	-358.27739	1014.51198	379.14599	-339.73323	894.45714	93.42609	-319.07067	832.46771	61.75856	-280.74210	996.64648	41.49527	-341.43956	1043.18200	54.12749	-282.52235	1326.23319	325.85121	-109.64472	1232.72539	422.19478	-88.77627	1247.40777	306.07346	-86.70347	939.74366	406.98216	-383.57270	908.34507	288.80531	-383.62207	1197.07311	722.13703	-74.10175	1241.59350	618.25059	-88.81043	1190.61869	571.69411	-84.10771	1092.76201	676.30260	-78.48404	1139.55204	575.11060	-104.61425	1103.55390	724.22168	-431.70208	1079.04499	592.96523	-391.02942	991.99561	738.24218	-436.30506	965.71761	618.90227	-376.54204	1180.85278	913.97285	-149.03236	965.82716	934.77892	-211.67486	1171.68911	911.50498	-371.25023	965.42422	938.90740	-291.84786	1067.28667	1384.03816	-260.64313	1104.33675	1351.79307	-114.55484	1119.68078	1353.61763	-393.59539	1187.89156	1315.66070	-227.66572	1188.81687	1314.64576	-268.57093	1101.19061	1240.80887	-46.46763	981.07584	1055.21355	-60.14583	1013.02697	1058.60956	-2.52996	1065.55395	981.22147	17.95243	1088.28580	837.26515	23.26821	1059.50833	838.86722	48.30274	1137.38183	1257.90770	-467.61515	1107.64636	1030.67536	-479.50749	1141.18082	1061.27720	-530.96744	1232.20979	1002.38991	-524.78184	1315.99581	907.65990	-500.11624	1297.63065	891.45679	-532.11307	1100.91912	823.74717	-150.91355	1090.88773	825.50630	-358.17021	1109.72562	836.25915	-182.94284	1108.98854	843.81031	-329.53944	
101	1.00000000	1256.85433	473.11209	-116.30902	1311.26956	434.48442	-120.96205	1386.15874	102.56086	-127.81795	1347.80420	55.47911	-173.79403	1507.05154	97.90045	-111.61268	1532.44110	141.27192	-162.66957	1001.42626	467.50212	-357.89858	1020.14087	378.29170	-339.29624	895.16212	94.62702	-318.72731	832.89389	63.08359	-280.45011	996.79635	41.49559	-341.41960	1042.98663	53.42249	-282.32734	1339.26945	325.75322	-110.32975	1242.18605	418.83499	-90.08751	1260.90454	303.21650	-88.27398	946.05111	407.46681	-383.09842	912.74268	289.76206	-383.41594	1208.67544	719.30943	-74.52092	1252.07659	615.08669	-90.09330	1200.76290	568.99664	-84.86910	1104.01380	674.54354	-78.11395	1149.59458	572.87360	-105.00198	1113.39999	722.45091	-431.46378	1087.41809	591.53627	-390.73485	1001.75302	738.05892	-435.42217	974.59494	618.92707	-375.38100	1193.21127	911.63094	-148.68686	978.06601	932.66067	-210.71917	1183.64556	909.27377	-371.05723	977.53636	937.10690	-290.86491	1078.57461	1382.07613	-259.72401	1115.55397	1349.68159	-113.62021	1130.92835	1351.93779	-392.71339	1199.43636	1313.88125	-226.78728	1200.33537	1312.92237	-267.73884	1111.99784	1238.63912	-45.41357	991.59240	1053.22643	-60.37414	1022.93520	1056.78937	-2.33219	1074.69448	979.14966	18.96510	1096.21941	834.90814	25.02156	1067.32874	836.95317	49.72420	1149.09536	1256.45833	-466.87982	1120.47682	1029.06140	-479.49971	1154.18998	1060.05064	-530.76529	1245.69649	1001.89717	-523.94683	1330.09724	907.93559	-498.75506	1312.10678	891.62051	-530.92289	1113.20507	821.47863	-150.46816	1102.62996	823.44823	-357.69625	1121.99462	833.60983	-182.81774	1121.02532	841.74832	-329.49557	
102	1.01000000	1266.37551	470.72182	-117.31521	1320.56968	433.26600	-121.46492	1404.24631	103.03837	-128.94307	1368.26247	55.07235	-176.35957	1524.98952	101.39945	-110.83675	1550.18183	145.45075	-161.33984	1009.07025	467.08792	-357.53949	1026.26761	377.34290	-338.85671	896.06792	95.90662	-318.49801	833.39864	64.62868	-280.24867	996.97029	41.47390	-341.40906	1042.81696	52.67953	-282.17033	1351.25880	325.16983	-110.91778	1251.57488	415.77271	-91.37951	1273.20097	300.58421	-90.02899	952.95933	407.94955	-382.64942	917.57162	290.79543	-383.26967	1220.38558	716.86927	-74.85446	1262.81248	612.37471	-91.27486	1211.21425	566.69132	-85.74364	1115.42002	673.01923	-78.07829	1160.02698	570.93039	-105.60550	1123.52523	720.62047	-431.17985	1096.27897	590.10183	-390.37043	1011.94510	737.73918	-434.48291	983.96815	618.77504	-374.16703	1205.60239	909.40815	-148.29469	990.35997	930.61343	-209.69314	1195.74216	907.10382	-370.81974	989.76667	935.27704	-289.84153	1089.99700	1380.16978	-258.68130	1126.89268	1347.58831	-112.56396	1142.28875	1350.30778	-391.72783	1211.08611	1312.09758	-225.78501	1211.95908	1311.23238	-266.79065	1123.03795	1236.45268	-44.35376	1002.36712	1051.19214	-60.49133	1033.20085	1054.88343	-2.09459	1084.21640	977.01045	19.94698	1104.61421	832.53821	26.65388	1075.56083	834.98579	51.02436	1160.85669	1255.02268	-466.02953	1133.24979	1027.45217	-479.26141	1167.05027	1058.81608	-530.38703	1258.97656	1001.27778	-523.07000	1343.90478	907.97036	-497.45941	1326.21248	891.56616	-529.79327	1125.59566	819.30917	-149.93579	1114.50771	821.42001	-357.13635	1134.27724	831.16097	-182.60308	1133.19085	839.70147	-329.37036	
103	1.02000000	1276.44475	468.76797	-118.18072	1330.23099	431.69972	-121.72987	1418.62344	102.63193	-130.46400	1384.58548	54.29080	-179.34463	1539.11723	102.75178	-110.13667	1564.71047	147.23059	-160.00167	1017.36401	466.58063	-357.18754	1032.97184	376.32745	-338.44881	897.18374	97.27935	-318.39384	834.00472	66.43754	-280.16119	997.17628	41.42329	-341.41010	1042.76719	51.94542	-282.10540	1362.31490	323.95675	-111.50252	1261.09532	413.04859	-92.65879	1284.35217	298.13410	-91.94617	960.48535	408.42695	-382.24990	922.82032	291.92046	-383.17796	1232.26286	714.88510	-75.09617	1273.90461	610.18791	-92.30346	1222.08711	564.82148	-86.64080	1127.04165	671.74097	-78.28324	1170.92248	569.32144	-106.28814	1133.94460	718.74276	-430.84243	1105.67003	588.67471	-389.93558	1022.61295	737.26540	-433.50659	993.84610	618.43095	-372.98595	1218.03167	907.39093	-147.84815	1002.71219	928.69262	-208.62943	1207.97740	905.02925	-370.52382	1002.12244	933.43130	-288.80420	1101.55358	1378.36476	-257.52845	1138.35138	1345.55747	-111.39068	1153.80552	1348.76606	-390.63604	1222.84520	1310.34095	-224.65432	1223.69293	1309.60475	-265.71901	1134.30258	1234.29169	-43.30556	1013.39495	1049.15851	-60.47780	1043.82048	1052.92980	-1.81183	1094.14266	974.84315	20.88695	1113.47305	830.18966	28.15731	1084.23121	832.99392	52.21665	1172.69913	1253.63958	-465.06019	1145.94469	1025.88811	-478.78940	1179.74242	1057.60396	-529.82557	1272.02225	1000.55397	-522.14175	1357.38854	907.77440	-496.24183	1339.91481	891.31074	-528.71242	1138.09882	817.31897	-149.29555	1126.54670	819.44338	-356.47122	1146.57406	829.01409	-182.25349	1145.49360	837.69471	-329.11909	
